<?xml version="1.0" encoding="utf-8"?>
<!-- Generator: Adobe Illustrator 18.0.0, SVG Export Plug-In . SVG Version: 6.00 Build 0)  -->
<!DOCTYPE svg PUBLIC "-//W3C//DTD SVG 1.1//EN" "http://www.w3.org/Graphics/SVG/1.1/DTD/svg11.dtd">
<svg version="1.1"
	 id="svg3067" sodipodi:docname="16_door_side_flip.svg" inkscape:version="0.48.5 r10040" xmlns:inkscape="http://www.inkscape.org/namespaces/inkscape" xmlns:sodipodi="http://sodipodi.sourceforge.net/DTD/sodipodi-0.dtd" xmlns:svg="http://www.w3.org/2000/svg" xmlns:rdf="http://www.w3.org/1999/02/22-rdf-syntax-ns#" xmlns:dc="http://purl.org/dc/elements/1.1/" xmlns:cc="http://creativecommons.org/ns#"
	 xmlns="http://www.w3.org/2000/svg" xmlns:xlink="http://www.w3.org/1999/xlink" x="0px" y="0px" viewBox="0 0 612 792"
	 enable-background="new 0 0 612 792" xml:space="preserve">
<path d="M374.7,250l10.9,81.8l-31.1-76.7c-1.4-2.1-2.1-5.1-1.4-6.5c0.7-2.1,1.4-2.8,3.7-3.7l10.9-2.8
	C371.9,240.7,374.7,243.5,374.7,250z M612,257.9v243.7h-65.1c-1.4,26.7-23.9,48.4-51.4,48.4s-49.9-21.7-52.1-48.4H416
	c-20.2,0-23.2-9.5-23.2-21.7v-61.4c0-10.9,1.4-18.8,6.5-29.7l54.2-107.1c6.5-13,23.2-23.9,37.6-23.9L612,257.9z M523,497.3
	c0-15.2-12.3-27.5-27.5-27.5s-28.2,12.3-28.2,27.5c0,15.2,13,28.2,28.2,28.2S523,512.6,523,497.3z M579.4,288.3h-76.7
	c-11.6,0.7-17.4,5.8-24.6,18.8l-23.9,54.2h125.1V288.3z M337.1,416.4v63.7c0,16-10.9,21.7-23.9,21.7H259
	c-2.1,26.7-24.6,48.4-52.1,48.4s-49.9-21.7-52.1-48.4H0V257.9h119.4c14.4,0,29,8.6,37.6,23.9l49.9,78.8l99,22.5
	C331.3,387.4,336.4,403.4,337.1,416.4z M163.5,361.4l-32.5-54.2c-5.8-10.9-15.2-18.9-29-18.9H32.7v73h130.8V361.4z M233.7,497.3
	c0-15.2-12.3-27.5-27.5-27.5S178,482.1,178,497.3c0,15.2,13,28.2,28.2,28.2S233.7,512.6,233.7,497.3z M285.1,291.2
	c-1.4,0-2.8,0.7-4.4,2.8l-5.8,9.5c-0.7,0.7-0.7,1.4-0.7,2.1c0,2.8,2.1,5.1,6.5,6.5l76.7,31.8l-65.8-49.9
	C288.7,292.7,286.6,291.2,285.1,291.2z M306.8,248.6c-1.4,0-2.8,0.7-4.4,2.1l-9.5,9.5c-1.4,1.4-2.1,2.8-2.1,5.1
	c0,2.8,2.1,5.8,5.8,7.9l80.9,62.2l-62-80.9C311.8,250,308.9,248.6,306.8,248.6z"/>
</svg>
