<svg height="512" viewBox="0 0 64 64" width="512" xmlns="http://www.w3.org/2000/svg"><path d="m14.58 28.36-11.58-1.63v-2.02l8.81 1.24a2.979 2.979 0 0 1 2.14 1.39z"/><path d="m6.18 29.19-.83 5.95-2.35-.33v-6.06z"/><path d="m29.42 50.64.28-1.98-3.96-.56a2 2 0 0 1 -1.7-2.26l.28-1.98a1.985 1.985 0 0 1 2.26-1.7l2.94.41a5.172 5.172 0 0 0 -.36-.59 4.986 4.986 0 0 0 -3.3-1.94l-3.96-.56-14.85-2.08-1.95 13.86 6.02.84a6.995 6.995 0 0 1 13.71 1.93l3.05.43a1.01 1.01 0 0 0 1.13-.85l.14-.99-2.98-.42.28-1.98zm-16.99-8.45-3.96-.56.28-1.98 3.96.56z"/><path d="m5.07 37.12-1.95 13.86-.12-.02v-14.13z"/><path d="m15.946 30.567-7.783-1.094-.835 5.942 12.74 1.79-4.121-6.644z"/><path d="m18.53 49.11a4.24 4.24 0 0 0 -.71-.05 4.882 4.882 0 0 0 -2.99 1.01 4.962 4.962 0 0 0 -1.95 3.29 5 5 0 1 0 5.65-4.25zm.16 6.08-1.98-.28.27-1.98 1.98.28z"/><path d="m30.12 45.687a5.063 5.063 0 0 0 .039-1l-3.859-.547-.278 1.98 3.96.557z"/><path d="m41.85 29.24 19.15-1.67v-2l-20.43 1.78a3.012 3.012 0 0 0 -2.52 1.85l-3.75 9.13c-.12.35-.21.7-.3 1.05l3.45 1.73a1 1 0 0 1 .54.73 1.032 1.032 0 0 1 -.28.87l-1.3 1.29 1.3 1.29a1.024 1.024 0 0 1 .28.83.984.984 0 0 1 -.47.74l-3.53 2.11.09 1.03 2.99-.26.18 1.99-2.99.26.08 1a1.041 1.041 0 0 0 .36.68 1.017 1.017 0 0 0 .73.23l3.07-.27a6.985 6.985 0 0 1 13.78-1.21l6.06-.53-1.22-13.94-16.72 1.46c-.06 0-.11.01-.17.01a2.015 2.015 0 0 1 -1.99-2.22l.91-5.46a3.015 3.015 0 0 1 2.7-2.5zm3.49 11.75.17 1.99-3.98.35-.17-2z"/><path d="m48.69 50.19a4.969 4.969 0 0 0 -3.2-1.17c-.15 0-.3.01-.45.02a4.992 4.992 0 0 0 -3.39 1.77 4.942 4.942 0 0 0 -1.15 3.65 5 5 0 1 0 8.19-4.27zm-4.12 4.92-.18-2 2-.17.17 1.99z"/><path d="m35.312 42.274-1.687-.843a15.16 15.16 0 0 0 -.035 2.938l.209 2.388 1.589-.955-1.095-1.095a1 1 0 0 1 0-1.414z"/><path d="m61 37.61v14.05l-.67.06-1.22-13.95z"/><path d="m41.127 32.068-.905 5.4 16.725-1.505-.524-5.99-14.4 1.26a1 1 0 0 0 -.896.835z"/><path d="m61 29.58v6.02l-2.06.19-.52-5.99z"/><path d="m34.586 24h-3.586a1 1 0 0 1 -1-1v-2.586l-3.293 3.293a1 1 0 0 1 -1.414 0l-3.293-3.293v2.586a1 1 0 0 1 -1 1h-2.586l1.293 1.293-.707.707 1 1h13l-.707-.707z"/><path d="m24.3 16h2a1.36 1.36 0 0 1 .465-1.021 3.322 3.322 0 0 0 0-4.62 1.358 1.358 0 0 1 0-2.048 3.29 3.29 0 0 0 .935-2.311h-2a1.362 1.362 0 0 1 -.466 1.024 3.326 3.326 0 0 0 0 4.622 1.356 1.356 0 0 1 0 2.045 3.28 3.28 0 0 0 -.934 2.309z"/><path d="m30.3 14h2a1.36 1.36 0 0 1 .465-1.021 3.322 3.322 0 0 0 0-4.62 1.358 1.358 0 0 1 0-2.048 3.29 3.29 0 0 0 .935-2.311h-2a1.362 1.362 0 0 1 -.466 1.024 3.326 3.326 0 0 0 0 4.622 1.356 1.356 0 0 1 0 2.045 3.28 3.28 0 0 0 -.934 2.309z"/><path d="m32.71 34.29-1.42 1.42-1.42-1.42-5.32 3.54-2.37-.33-.6-.08 7.87-5.25a1 1 0 0 1 1.26.12z"/></svg>