<?xml version="1.0" encoding="utf-8"?>
<!-- Generator: Adobe Illustrator 16.0.0, SVG Export Plug-In . SVG Version: 6.00 Build 0)  -->
<!DOCTYPE svg PUBLIC "-//W3C//DTD SVG 1.1//EN" "http://www.w3.org/Graphics/SVG/1.1/DTD/svg11.dtd">
<svg version="1.1" id="Layer_12" xmlns="http://www.w3.org/2000/svg" xmlns:xlink="http://www.w3.org/1999/xlink" x="0px" y="0px"
	 width="100px" height="100px" viewBox="0 0 100 100" enable-background="new 0 0 100 100" xml:space="preserve">
<path d="M59.965,18.306H45.921v-2.399h1.776v-3.598c0.084,0.026,0.169,0.042,0.256,0.042c0.719,0,1.301-0.94,1.301-2.101
	c0-1.159-0.582-2.1-1.301-2.1c-0.087,0-0.172,0.015-0.256,0.041V6.396h10.49v9.511h1.777V18.306z M70.453,29.148v62.934
	c0,2.945-2.388,5.333-5.333,5.333h-23.2c-2.945,0-5.333-2.388-5.333-5.333V29.148c0-1.68,0.78-3.176,1.995-4.154
	c-0.407-0.397-0.661-0.951-0.661-1.564c0-1.21,0.981-2.189,2.19-2.189h26.81c1.21,0,2.191,0.979,2.191,2.189
	c0,0.611-0.253,1.164-0.657,1.563C69.673,25.969,70.453,27.467,70.453,29.148z M47.5,22H42c-1.29,0-1.29,2,0,2h5.5
	C48.79,24,48.79,22,47.5,22z M67.334,61.333c0-1.29-2-1.29-2,0v27.334c0,1.29,2,1.29,2,0V61.333z M30.521,12.757l-1.157,0.159
	c-0.146,0.02-0.248,0.154-0.228,0.301l0.079,0.58c0.009,0.07,0.047,0.134,0.103,0.177c0.047,0.036,0.104,0.054,0.161,0.054
	c0.013,0,0.024-0.001,0.037-0.003l1.158-0.159c0.146-0.021,0.248-0.155,0.228-0.301l-0.079-0.579
	C30.802,12.84,30.67,12.737,30.521,12.757z M42.334,9.297c0.032,0.014,0.068,0.021,0.103,0.021s0.069-0.007,0.102-0.02
	c0.066-0.026,0.117-0.078,0.145-0.144l0.226-0.538c0.058-0.135-0.005-0.291-0.141-0.349l-1.842-0.775
	c-0.134-0.057-0.292,0.006-0.349,0.141L40.35,8.17c-0.026,0.065-0.027,0.139-0.001,0.205c0.025,0.064,0.078,0.117,0.143,0.145
	L42.334,9.297z M38.649,7.745c0.034,0.015,0.069,0.021,0.104,0.021c0.104,0,0.202-0.061,0.245-0.163l0.229-0.538
	c0.027-0.066,0.027-0.139,0.001-0.204c-0.027-0.065-0.077-0.119-0.144-0.146l-1.842-0.774c-0.134-0.057-0.291,0.006-0.348,0.142
	l-0.229,0.538c-0.027,0.065-0.027,0.139-0.002,0.204c0.026,0.066,0.078,0.118,0.144,0.146L38.649,7.745z M32.618,13.596
	c0.013,0,0.023-0.001,0.036-0.002l1.979-0.271c0.146-0.02,0.249-0.153,0.229-0.299l-0.08-0.582c-0.011-0.07-0.046-0.134-0.104-0.176
	c-0.056-0.043-0.128-0.063-0.196-0.052l-1.979,0.272c-0.07,0.01-0.134,0.047-0.176,0.103c-0.043,0.058-0.062,0.128-0.053,0.198
	l0.081,0.578C32.373,13.5,32.486,13.596,32.618,13.596z M34.969,6.193c0.033,0.014,0.067,0.021,0.103,0.021s0.07-0.007,0.102-0.02
	c0.066-0.026,0.117-0.079,0.145-0.145l0.227-0.539c0.057-0.136-0.007-0.291-0.143-0.349L33.56,4.387
	c-0.064-0.028-0.138-0.028-0.204-0.001c-0.064,0.027-0.117,0.078-0.145,0.144l-0.228,0.539c-0.056,0.136,0.008,0.292,0.142,0.349
	L34.969,6.193z M44.244,13.29c0.038,0.061,0.099,0.103,0.169,0.117c0.018,0.004,0.037,0.007,0.057,0.007
	c0.051,0,0.1-0.015,0.144-0.042l0.984-0.629c0.124-0.08,0.161-0.244,0.081-0.368l-0.314-0.493c-0.008-0.012-0.02-0.02-0.029-0.03
	l0.356-0.048c0.146-0.021,0.247-0.154,0.228-0.301l-0.079-0.578c-0.021-0.146-0.157-0.255-0.301-0.229l-1.159,0.159
	c-0.07,0.009-0.133,0.045-0.176,0.103c-0.043,0.056-0.062,0.127-0.051,0.196l0.078,0.58c0.02,0.134,0.133,0.229,0.264,0.229
	c0.013,0,0.025-0.001,0.037-0.001l0.268-0.037l-0.789,0.503c-0.124,0.08-0.159,0.244-0.08,0.369L44.244,13.29z M45.251,10.527
	c0.035,0.015,0.069,0.021,0.104,0.021c0.104,0,0.202-0.062,0.245-0.162l0.228-0.539c0.027-0.065,0.027-0.139,0.001-0.204
	c-0.026-0.066-0.077-0.117-0.143-0.146l-1.078-0.454c-0.064-0.027-0.139-0.027-0.205-0.001c-0.064,0.026-0.117,0.079-0.145,0.144
	l-0.227,0.54c-0.057,0.136,0.007,0.292,0.142,0.35L45.251,10.527z M31.285,4.641c0.033,0.014,0.068,0.021,0.103,0.021
	c0.035,0,0.07-0.007,0.103-0.02c0.065-0.027,0.116-0.079,0.145-0.144l0.227-0.539c0.057-0.136-0.006-0.292-0.142-0.35l-1.077-0.453
	c-0.136-0.058-0.291,0.006-0.351,0.143l-0.227,0.538c-0.026,0.065-0.028,0.14-0.001,0.204c0.027,0.065,0.077,0.119,0.144,0.146
	L31.285,4.641z M40.537,12.509c0.013,0,0.023-0.001,0.037-0.003l1.979-0.272c0.07-0.009,0.134-0.046,0.177-0.102
	c0.043-0.057,0.062-0.128,0.052-0.198l-0.079-0.581c-0.01-0.069-0.048-0.133-0.104-0.175c-0.057-0.043-0.128-0.062-0.198-0.053
	l-1.979,0.272c-0.07,0.009-0.134,0.046-0.177,0.104c-0.042,0.056-0.061,0.128-0.052,0.197l0.08,0.58
	C40.292,12.411,40.405,12.509,40.537,12.509z M42.327,13.503l-1.686,1.074c-0.06,0.038-0.102,0.1-0.118,0.168
	c-0.015,0.068-0.002,0.142,0.036,0.2l0.315,0.496c0.051,0.079,0.138,0.123,0.226,0.123c0.05,0,0.098-0.015,0.144-0.042l1.684-1.076
	c0.124-0.08,0.161-0.243,0.081-0.369l-0.314-0.493C42.615,13.461,42.45,13.425,42.327,13.503z M32.585,20.034
	c-0.078-0.124-0.242-0.159-0.367-0.082l-0.985,0.628c-0.06,0.038-0.103,0.099-0.116,0.167c-0.017,0.069-0.004,0.142,0.034,0.2
	l0.315,0.495c0.037,0.06,0.098,0.102,0.167,0.117c0.02,0.004,0.038,0.007,0.058,0.007c0.05,0,0.1-0.015,0.144-0.042l0.985-0.63
	c0.061-0.038,0.104-0.099,0.117-0.168c0.016-0.069,0.002-0.141-0.036-0.201L32.585,20.034z M38.594,12.777
	c0.146-0.019,0.247-0.154,0.228-0.299l-0.079-0.581c-0.01-0.07-0.047-0.134-0.103-0.176c-0.058-0.044-0.128-0.061-0.198-0.053
	l-1.979,0.274c-0.07,0.009-0.135,0.047-0.177,0.102c-0.042,0.058-0.062,0.128-0.051,0.198l0.08,0.579
	c0.018,0.133,0.133,0.23,0.264,0.23c0.012,0,0.024-0.002,0.036-0.003L38.594,12.777z M35.955,17.884
	c-0.038-0.061-0.098-0.103-0.166-0.118c-0.069-0.015-0.142-0.002-0.202,0.036l-1.685,1.077c-0.124,0.079-0.161,0.244-0.082,0.367
	l0.315,0.493c0.037,0.06,0.097,0.102,0.166,0.117c0.021,0.004,0.038,0.007,0.059,0.007c0.05,0,0.1-0.015,0.144-0.042l1.685-1.077
	c0.124-0.079,0.161-0.243,0.081-0.367L35.955,17.884z M38.958,15.652l-1.686,1.074c-0.123,0.079-0.16,0.243-0.081,0.367l0.313,0.496
	c0.037,0.06,0.099,0.103,0.167,0.117c0.02,0.004,0.039,0.006,0.058,0.006c0.051,0,0.1-0.015,0.144-0.042l1.685-1.075
	c0.125-0.079,0.161-0.244,0.081-0.367l-0.313-0.494c-0.038-0.06-0.098-0.103-0.168-0.117C39.09,15.602,39.017,15.614,38.958,15.652z
	"/>
</svg>
